<?xml version="1.0" encoding="utf-8"?>
<!-- Generator: Adobe Illustrator 22.0.1, SVG Export Plug-In . SVG Version: 6.00 Build 0)  -->
<svg version="1.1" id="Layer_1" xmlns="http://www.w3.org/2000/svg" xmlns:xlink="http://www.w3.org/1999/xlink" x="0px" y="0px"
	 viewBox="0 0 257.1 91.8" style="enable-background:new 0 0 257.1 91.8;" xml:space="preserve">
<style type="text/css">
	.st0{fill:#32A9EB;}
	.st1{fill:#646464;}
</style>
<path class="st0" d="M77.5,21.9L42.4,1.6c-1.1-0.7-3-0.7-4.1,0L3.2,21.9c-1.1,0.6-2.1,2.2-2.1,3.6V66c0,1.3,0.9,2.9,2.1,3.6
	l35.1,20.3c1.1,0.7,3,0.7,4.1,0l35.1-20.3c1.1-0.6,2.1-2.3,2.1-3.6V25.5C79.5,24.1,78.6,22.5,77.5,21.9z M67.3,28.1l4-2.3
	c0.8-0.5,1.8-0.2,2.3,0.6c0.5,0.8,0.2,1.8-0.6,2.3L69,31c-0.3,0.2-0.5,0.2-0.8,0.2c-0.6,0-1.1-0.3-1.4-0.8
	C66.2,29.6,66.5,28.6,67.3,28.1z M42.5,52.1c0.5,0.8,0.2,1.8-0.6,2.3l-11.1,6.4C30.5,60.9,30.3,61,30,61c-0.6,0-1.1-0.3-1.4-0.8
	c-0.5-0.8-0.2-1.8,0.6-2.3l11.1-6.4C41.1,51,42.1,51.3,42.5,52.1z M36.3,34.5l-5,2.9c-0.3,0.2-0.5,0.2-0.8,0.2
	c-0.6,0-1.1-0.3-1.4-0.8c-0.5-0.8-0.2-1.8,0.6-2.3l5-2.9c0.8-0.5,1.8-0.2,2.3,0.6C37.3,33.1,37.1,34.1,36.3,34.5z M37.1,37.7
	c0.8-0.5,1.8-0.2,2.3,0.6c0.5,0.8,0.2,1.8-0.6,2.3l-1.9,1.1c-0.3,0.2-0.5,0.2-0.8,0.2c-0.6,0-1.1-0.3-1.4-0.8
	c-0.5-0.8-0.2-1.8,0.6-2.3L37.1,37.7z M32.2,48.4C33,48,34,48.2,34.4,49c0.5,0.8,0.2,1.8-0.6,2.3l-3,1.8c-0.3,0.2-0.5,0.2-0.8,0.2
	c-0.6,0-1.1-0.3-1.4-0.8c-0.5-0.8-0.2-1.8,0.6-2.3L32.2,48.4z M32.1,10.1l7.3-4.2c0.8-0.5,1.8-0.2,2.3,0.6c0.5,0.8,0.2,1.8-0.6,2.3
	L33.8,13c-0.3,0.2-0.5,0.2-0.8,0.2c-0.6,0-1.1-0.3-1.4-0.8C31,11.5,31.3,10.5,32.1,10.1z M39.1,17.5L35,19.9
	c-0.3,0.2-0.5,0.2-0.8,0.2c-0.6,0-1.1-0.3-1.4-0.8c-0.5-0.8-0.2-1.8,0.6-2.3l4.1-2.4c0.8-0.5,1.8-0.2,2.3,0.6
	C40.1,16.1,39.9,17.1,39.1,17.5z M7.1,24.6l15.4-8.9c0.8-0.5,1.8-0.2,2.3,0.6c0.5,0.8,0.2,1.8-0.6,2.3L8.7,27.5
	c-0.3,0.1-0.5,0.2-0.8,0.2c-0.6,0-1.1-0.3-1.4-0.8C6,26.1,6.3,25.1,7.1,24.6z M7.9,35.4c-0.6,0-1.1-0.3-1.4-0.8
	c-0.5-0.8-0.2-1.8,0.6-2.3L28.3,20c0.8-0.5,1.8-0.2,2.3,0.6s0.2,1.8-0.6,2.3L8.7,35.1C8.5,35.3,8.2,35.4,7.9,35.4z M10.9,41.3
	c-0.6,0-1.1-0.3-1.4-0.8c-0.5-0.8-0.2-1.8,0.6-2.3l29.5-17c0.8-0.5,1.8-0.2,2.3,0.6c0.5,0.8,0.2,1.8-0.6,2.3l-29.5,17
	C11.5,41.2,11.2,41.3,10.9,41.3z M14.7,46.8c-0.6,0-1.1-0.3-1.4-0.8c-0.5-0.8-0.2-1.8,0.6-2.3l8.6-5c0.8-0.5,1.8-0.2,2.3,0.6
	c0.5,0.8,0.2,1.8-0.6,2.3l-8.6,5C15.3,46.7,15,46.8,14.7,46.8z M22.4,50c-0.6,0-1.1-0.3-1.4-0.8c-0.5-0.8-0.2-1.8,0.6-2.3l5.7-3.3
	c0.8-0.5,1.8-0.2,2.3,0.6c0.5,0.8,0.2,1.8-0.6,2.3l-5.7,3.3C23,49.9,22.7,50,22.4,50z M34.8,81.5c-0.3,0.2-0.5,0.2-0.8,0.2
	c-0.6,0-1.1-0.3-1.4-0.8c-0.5-0.8-0.2-1.8,0.6-2.3l8.5-4.9c0.8-0.5,1.8-0.2,2.3,0.6c0.5,0.8,0.2,1.8-0.6,2.3L34.8,81.5z M45.6,82.9
	L41,85.6c-0.3,0.1-0.5,0.2-0.8,0.2c-0.6,0-1.1-0.3-1.4-0.8c-0.5-0.8-0.2-1.8,0.6-2.3L44,80c0.8-0.4,1.8-0.2,2.3,0.6
	C46.7,81.4,46.4,82.5,45.6,82.9z M46.5,67l-12.7,7.4c-0.3,0.2-0.6,0.2-0.8,0.2c-0.6,0-1.1-0.3-1.4-0.8c-0.5-0.8-0.2-1.8,0.6-2.3
	l12.7-7.4c0.8-0.5,1.8-0.2,2.3,0.6C47.6,65.5,47.3,66.5,46.5,67z M49.7,57.5L27.8,70.2c-0.3,0.2-0.5,0.2-0.8,0.2
	c-0.6,0-1.1-0.3-1.4-0.8c-0.5-0.8-0.2-1.8,0.6-2.3l22-12.7c0.8-0.5,1.8-0.2,2.3,0.6C50.8,56,50.5,57,49.7,57.5z M75,57.7l-1.6,0.9
	c-0.3,0.2-0.5,0.2-0.8,0.2c-0.6,0-1.1-0.3-1.4-0.8c-0.5-0.8-0.2-1.8,0.6-2.3l1.6-0.9c0.8-0.5,1.8-0.2,2.3,0.6
	C76.1,56.2,75.8,57.2,75,57.7z M75.2,50.4l-3.1,1.8c-0.3,0.2-0.5,0.2-0.8,0.2c-0.6,0-1.1-0.3-1.4-0.8c-0.5-0.8-0.2-1.8,0.6-2.3
	l3.1-1.8c0.8-0.5,1.8-0.2,2.3,0.6C76.3,48.9,76,50,75.2,50.4z M75.2,42.7l-5.1,2.9c-0.3,0.2-0.5,0.2-0.8,0.2c-0.6,0-1.1-0.3-1.4-0.8
	c-0.5-0.8-0.2-1.8,0.6-2.3l5.1-2.9c0.8-0.5,1.8-0.2,2.3,0.6C76.3,41.3,76,42.3,75.2,42.7z M75.2,35l-10.9,6.3
	c-0.3,0.1-0.5,0.2-0.8,0.2c-0.6,0-1.1-0.3-1.4-0.8c-0.5-0.8-0.2-1.8,0.6-2.3l10.9-6.3c0.8-0.5,1.8-0.2,2.3,0.6
	C76.3,33.6,76,34.6,75.2,35z"/>
<g>
	<path class="st1" d="M111,28.3c-5.9,0-10.5,2.9-10.5,10.6v10.3c0,7.7,4.6,10.6,10.5,10.6c5.9,0,10.5-2.9,10.5-10.6V38.9
		C121.5,31.2,116.9,28.3,111,28.3z M117.4,49.2c0,4.7-2.4,6.9-6.4,6.9c-4,0-6.4-2.2-6.4-6.9V38.9c0-4.7,2.4-6.9,6.4-6.9
		c4,0,6.4,2.2,6.4,6.9V49.2z"/>
	<path class="st1" d="M139,36.2c-3.3,0-5.5,1.8-6.5,3.7v-2c0-0.8-0.9-1.4-1.8-1.4c-1.2,0-2,0.6-2,1.4v20.2c0,0.7,0.8,1.5,2,1.5
		c1.1,0,2-0.7,2-1.5V45.5c0-3.6,2.7-5.7,5.3-5.7c3,0,5.6,2.8,5.6,5.7v12.6c0,1,1,1.5,2,1.5c1,0,2-0.5,2-1.5V45.5
		C147.6,40.4,143.7,36.2,139,36.2z"/>
	<path class="st1" d="M183.6,28.4c-1,0-2,0.4-2,1.4v28.3c0,1,1,1.5,2,1.5c1,0,2.1-0.5,2.1-1.5V29.8
		C185.6,28.8,184.6,28.4,183.6,28.4z"/>
	<path class="st1" d="M218,28.3c-1.5,0-2.3,0.9-3.3,2.6L207,45.6l-7.6-14.7c-0.9-1.7-1.8-2.6-3.3-2.6c-1.1,0-2,0.5-2,2v27.8
		c0,1,1,1.5,2,1.5c1,0,2.1-0.5,2.1-1.5V36.7l7.3,14c0.4,0.8,1,1.1,1.5,1.1c0.6,0,1.2-0.3,1.6-1.1l7.4-13.8v21.2c0,1,1,1.5,2,1.5
		s2.1-0.5,2.1-1.5V30.3C220.1,28.8,219.1,28.3,218,28.3z"/>
	<path class="st1" d="M231.6,35.6c0-3.3,3.4-4.7,6.1-4.3c3.7,0.7,4.6,2.6,5.6,2.8c1,0.2,1.9-0.5,2.1-1.2c0.5-1.9-3.6-5.1-7.9-5.1
		c-4.8,0-9.5,2.2-9.5,8c0,10.5,14.2,6.6,14.2,15.3c0,3.6-2.4,5.4-6,5.4c-5.1,0-6.1-3.5-7.4-3.5c-0.8,0-1.6,1.1-1.6,2
		c0,1.9,3.6,4.9,9.2,4.9c5.5,0,9.5-2.9,9.5-9.1C245.9,39.1,231.6,42.9,231.6,35.6z"/>
	<path class="st1" d="M169.1,49.6c2.2,0,4.3-0.5,4.3-4.4c0-5.2-4.4-9-9.4-9c-5.4,0-9.7,4.2-9.7,9.2v5.1c0,5.7,4.5,9.5,10.8,9.5
		c4.7,0,7.7-2.2,7.7-3.5c0-0.7-0.7-1.9-1.7-1.9c-1.2,0-2.2,1.9-5.9,1.9c-4,0-6.9-2.3-6.9-5.9v-1.1L169.1,49.6L169.1,49.6z
		 M164.1,39.4c3.2,0,5.6,2.2,5.6,5c0,1.3-0.4,1.6-2.1,1.6h-9v-1.3C158.5,41.7,161,39.4,164.1,39.4z"/>
</g>
<g>
	<path class="st1" d="M252.2,29.9h0.9c0.5,0,1,0.2,1,0.9c0,0.3-0.2,0.7-0.5,0.8l0.7,1.2h-0.5l-0.5-1h-0.6v1h-0.4L252.2,29.9
		L252.2,29.9z M253.1,31.3c0.4,0,0.7-0.1,0.7-0.5c0-0.3-0.2-0.5-0.6-0.5h-0.4v1C252.7,31.3,253.1,31.3,253.1,31.3z"/>
</g>
<g>
	<path class="st1" d="M253.1,34.4c-1.7,0-3.2-1.4-3.2-3.2s1.4-3.2,3.2-3.2c1.7,0,3.2,1.4,3.2,3.2C256.3,33,254.9,34.4,253.1,34.4z
		 M253.1,28.7c-1.4,0-2.6,1.1-2.6,2.6c0,1.5,1.1,2.6,2.6,2.6c1.5,0,2.6-1.1,2.6-2.6S254.5,28.7,253.1,28.7z"/>
</g>
</svg>
